<?xml version="1.0" encoding="UTF-8" standalone="no"?>
<!DOCTYPE svg PUBLIC "-//W3C//DTD SVG 1.1//EN"
 "http://www.w3.org/Graphics/SVG/1.1/DTD/svg11.dtd">
<!-- Generated by graphviz version 7.0.5 (20221223.1930)
 -->
<!-- Pages: 1 -->
<svg width="14153pt" height="478pt"
 viewBox="0.00 0.00 14152.91 477.87" xmlns="http://www.w3.org/2000/svg" xmlns:xlink="http://www.w3.org/1999/xlink">
<g id="graph0" class="graph" transform="scale(1 1) rotate(0) translate(4 473.87)">
<polygon fill="white" stroke="none" points="-4,4 -4,-473.87 14148.91,-473.87 14148.91,4 -4,4"/>
<!-- 0 -->
<g id="node1" class="node">
<title>0</title>
<ellipse fill="none" stroke="black" cx="71.49" cy="-18" rx="71.49" ry="18"/>
<text text-anchor="middle" x="71.49" y="-14.3" font-family="Times New Roman,serif" font-size="14.00">welcome to td32</text>
</g>
<!-- 1 -->
<g id="node2" class="node">
<title>1</title>
<ellipse fill="none" stroke="black" cx="351.17" cy="-88" rx="148.37" ry="18"/>
<text text-anchor="middle" x="351.17" y="-84.3" font-family="Times New Roman,serif" font-size="14.00">you are a small robot, stuck in a cage.</text>
</g>
<!-- 0&#45;&gt;1 -->
<g id="edge1" class="edge">
<title>0&#45;&gt;1</title>
<path fill="none" stroke="black" d="M123.1,-30.76C165.19,-41.37 225.74,-56.63 273.74,-68.73"/>
<polygon fill="black" stroke="black" points="272.69,-72.08 283.24,-71.13 274.4,-65.29 272.69,-72.08"/>
<text text-anchor="middle" x="172.99" y="-48.8" font-family="Times New Roman,serif" font-size="14.00">play</text>
</g>
<!-- 1&#45;&gt;1 -->
<g id="edge2" class="edge">
<title>1&#45;&gt;1</title>
<path fill="none" stroke="black" d="M319.14,-105.78C313.7,-115.31 324.38,-124 351.17,-124 366.67,-124 376.77,-121.1 381.49,-116.81"/>
<polygon fill="black" stroke="black" points="384.89,-117.7 382.97,-107.28 377.97,-116.62 384.89,-117.7"/>
<text text-anchor="middle" x="351.17" y="-127.8" font-family="Times New Roman,serif" font-size="14.00">wait</text>
</g>
<!-- 2 -->
<g id="node3" class="node">
<title>2</title>
<ellipse fill="none" stroke="black" cx="928.58" cy="-144" rx="189.51" ry="26.74"/>
<text text-anchor="middle" x="928.58" y="-147.8" font-family="Times New Roman,serif" font-size="14.00">fail</text>
<text text-anchor="middle" x="928.58" y="-132.8" font-family="Times New Roman,serif" font-size="14.00"> nothing happened, but you did get exausted.</text>
</g>
<!-- 1&#45;&gt;2 -->
<g id="edge3" class="edge">
<title>1&#45;&gt;2</title>
<path fill="none" stroke="black" d="M418.07,-104.45C448.16,-111.32 484.37,-118.69 517.36,-123 586.02,-131.97 661.6,-137.16 728.99,-140.14"/>
<polygon fill="black" stroke="black" points="728.51,-143.63 738.65,-140.56 728.81,-136.63 728.51,-143.63"/>
<text text-anchor="middle" x="583.86" y="-138.8" font-family="Times New Roman,serif" font-size="14.00">rattle the cage</text>
</g>
<!-- 3 -->
<g id="node4" class="node">
<title>3</title>
<ellipse fill="none" stroke="black" cx="928.58" cy="-70" rx="260.43" ry="26.74"/>
<text text-anchor="middle" x="928.58" y="-73.8" font-family="Times New Roman,serif" font-size="14.00">the bars open, just enough to let you through.</text>
<text text-anchor="middle" x="928.58" y="-58.8" font-family="Times New Roman,serif" font-size="14.00"> you climb out and find yourself in a dark room, with a drawer.</text>
</g>
<!-- 1&#45;&gt;3 -->
<g id="edge4" class="edge">
<title>1&#45;&gt;3</title>
<path fill="none" stroke="black" d="M456.01,-74.95C476.32,-72.89 497.49,-71.08 517.36,-70 563.28,-67.51 612.14,-66.27 659.52,-65.82"/>
<polygon fill="black" stroke="black" points="659.4,-69.32 669.37,-65.73 659.35,-62.32 659.4,-69.32"/>
<text text-anchor="middle" x="583.86" y="-73.8" font-family="Times New Roman,serif" font-size="14.00">try to pry the bars open</text>
</g>
<!-- 2&#45;&gt;1 -->
<g id="edge5" class="edge">
<title>2&#45;&gt;1</title>
<path fill="none" stroke="black" d="M798.38,-124.23C740.56,-115.61 679.03,-106.83 650.36,-104 603.41,-99.36 552.17,-96 505.61,-93.59"/>
<polygon fill="black" stroke="black" points="505.87,-90.1 495.7,-93.09 505.51,-97.09 505.87,-90.1"/>
<text text-anchor="middle" x="583.86" y="-107.8" font-family="Times New Roman,serif" font-size="14.00">retry</text>
</g>
<!-- 4 -->
<g id="node5" class="node">
<title>4</title>
<ellipse fill="none" stroke="black" cx="1747.89" cy="-151" rx="235.43" ry="26.74"/>
<text text-anchor="middle" x="1747.89" y="-154.8" font-family="Times New Roman,serif" font-size="14.00">there seems to be a few objects inside.</text>
<text text-anchor="middle" x="1747.89" y="-139.8" font-family="Times New Roman,serif" font-size="14.00"> you throw them into your cargo and keep them for later.</text>
</g>
<!-- 3&#45;&gt;4 -->
<g id="edge6" class="edge">
<title>3&#45;&gt;4</title>
<path fill="none" stroke="black" d="M1118.11,-88.68C1249.92,-101.75 1425.29,-119.13 1557.32,-132.21"/>
<polygon fill="black" stroke="black" points="1556.95,-135.69 1567.25,-133.2 1557.64,-128.73 1556.95,-135.69"/>
<text text-anchor="middle" x="1304.29" y="-118.8" font-family="Times New Roman,serif" font-size="14.00">open the drawer</text>
</g>
<!-- 5 -->
<g id="node6" class="node">
<title>5</title>
<ellipse fill="none" stroke="black" cx="1747.89" cy="-65" rx="328.2" ry="26.74"/>
<text text-anchor="middle" x="1747.89" y="-68.8" font-family="Times New Roman,serif" font-size="14.00">fail</text>
<text text-anchor="middle" x="1747.89" y="-53.8" font-family="Times New Roman,serif" font-size="14.00"> you instantly ran out of battery. it seems you forgot to enable low power mode!</text>
</g>
<!-- 3&#45;&gt;5 -->
<g id="edge7" class="edge">
<title>3&#45;&gt;5</title>
<path fill="none" stroke="black" d="M1189.02,-68.41C1258.94,-67.99 1335.62,-67.52 1409.14,-67.07"/>
<polygon fill="black" stroke="black" points="1408.95,-70.57 1418.92,-67.01 1408.9,-63.57 1408.95,-70.57"/>
<text text-anchor="middle" x="1304.29" y="-71.8" font-family="Times New Roman,serif" font-size="14.00">turn on your flashlight to see better</text>
</g>
<!-- 6 -->
<g id="node7" class="node">
<title>6</title>
<ellipse fill="none" stroke="black" cx="2448.06" cy="-206" rx="321.14" ry="18"/>
<text text-anchor="middle" x="2448.06" y="-202.3" font-family="Times New Roman,serif" font-size="14.00">you are still in the dark room, but you have some things you think could help you out.</text>
</g>
<!-- 4&#45;&gt;6 -->
<g id="edge8" class="edge">
<title>4&#45;&gt;6</title>
<path fill="none" stroke="black" d="M1942.9,-166.28C2037.52,-173.74 2151.2,-182.69 2246.65,-190.21"/>
<polygon fill="black" stroke="black" points="2246.15,-193.68 2256.39,-190.98 2246.7,-186.7 2246.15,-193.68"/>
<text text-anchor="middle" x="2101.49" y="-181.8" font-family="Times New Roman,serif" font-size="14.00">ok</text>
</g>
<!-- 5&#45;&gt;3 -->
<g id="edge9" class="edge">
<title>5&#45;&gt;3</title>
<path fill="none" stroke="black" d="M1481.08,-49.12C1393.69,-45.91 1296.08,-44.46 1206.79,-48 1184.72,-48.87 1161.67,-50.14 1138.72,-51.63"/>
<polygon fill="black" stroke="black" points="1138.72,-48.12 1128.97,-52.27 1139.18,-55.1 1138.72,-48.12"/>
<text text-anchor="middle" x="1304.29" y="-51.8" font-family="Times New Roman,serif" font-size="14.00">retry</text>
</g>
<!-- 7 -->
<g id="node8" class="node">
<title>7</title>
<ellipse fill="none" stroke="black" cx="3590.19" cy="-339" rx="362.08" ry="37.45"/>
<text text-anchor="middle" x="3590.19" y="-350.3" font-family="Times New Roman,serif" font-size="14.00">fail</text>
<text text-anchor="middle" x="3590.19" y="-335.3" font-family="Times New Roman,serif" font-size="14.00"> the gun goes off with a loud bang and you are shot backwards, but the gun did nothing. </text>
<text text-anchor="middle" x="3590.19" y="-320.3" font-family="Times New Roman,serif" font-size="14.00"> it seems the door is bulletproof.</text>
</g>
<!-- 6&#45;&gt;7 -->
<g id="edge10" class="edge">
<title>6&#45;&gt;7</title>
<path fill="none" stroke="black" d="M2491.26,-224.28C2554.27,-250.54 2677.28,-297.88 2787.13,-317 2932.77,-342.35 3095.5,-350.46 3236.12,-351.27"/>
<polygon fill="black" stroke="black" points="3235.96,-354.77 3245.98,-351.32 3235.99,-347.77 3235.96,-354.77"/>
<text text-anchor="middle" x="2823.63" y="-329.8" font-family="Times New Roman,serif" font-size="14.00">gun</text>
</g>
<!-- 8 -->
<g id="node9" class="node">
<title>8</title>
<ellipse fill="none" stroke="black" cx="3590.19" cy="-257" rx="243.49" ry="26.74"/>
<text text-anchor="middle" x="3590.19" y="-260.8" font-family="Times New Roman,serif" font-size="14.00">fail</text>
<text text-anchor="middle" x="3590.19" y="-245.8" font-family="Times New Roman,serif" font-size="14.00"> the bomb explodes the door off, but it also explodes you.</text>
</g>
<!-- 6&#45;&gt;8 -->
<g id="edge12" class="edge">
<title>6&#45;&gt;8</title>
<path fill="none" stroke="black" d="M2585.37,-222.72C2646.91,-229.6 2720.58,-236.9 2787.13,-241 2970.22,-252.28 3177.23,-256.19 3335.08,-257.33"/>
<polygon fill="black" stroke="black" points="3334.82,-260.83 3344.84,-257.39 3334.86,-253.83 3334.82,-260.83"/>
<text text-anchor="middle" x="2823.63" y="-247.8" font-family="Times New Roman,serif" font-size="14.00">bomb</text>
</g>
<!-- 9 -->
<g id="node10" class="node">
<title>9</title>
<ellipse fill="none" stroke="black" cx="3590.19" cy="-185" rx="199.31" ry="26.74"/>
<text text-anchor="middle" x="3590.19" y="-188.8" font-family="Times New Roman,serif" font-size="14.00">fail</text>
<text text-anchor="middle" x="3590.19" y="-173.8" font-family="Times New Roman,serif" font-size="14.00"> its just cheese. what did you think it would do?</text>
</g>
<!-- 6&#45;&gt;9 -->
<g id="edge13" class="edge">
<title>6&#45;&gt;9</title>
<path fill="none" stroke="black" d="M2670.4,-192.64C2709.29,-190.74 2749.38,-189.07 2787.13,-188 2988.33,-182.27 3218.04,-182.06 3379.91,-182.95"/>
<polygon fill="black" stroke="black" points="3379.43,-186.45 3389.45,-183.01 3379.47,-179.45 3379.43,-186.45"/>
<text text-anchor="middle" x="2823.63" y="-191.8" font-family="Times New Roman,serif" font-size="14.00">cheese</text>
</g>
<!-- 10 -->
<g id="node11" class="node">
<title>10</title>
<ellipse fill="none" stroke="black" cx="3590.19" cy="-112" rx="712.11" ry="26.74"/>
<text text-anchor="middle" x="3590.19" y="-115.8" font-family="Times New Roman,serif" font-size="14.00">you have a stroke of genius and shoot the bread with the gun. the bread explodes and leaves flaming bread crumbs everywhere, but the door malfunctioned due to being breaded.</text>
<text text-anchor="middle" x="3590.19" y="-100.8" font-family="Times New Roman,serif" font-size="14.00"> you walk thru the door and find a room of lasers.</text>
</g>
<!-- 6&#45;&gt;10 -->
<g id="edge11" class="edge">
<title>6&#45;&gt;10</title>
<path fill="none" stroke="black" d="M2528.51,-188.14C2596.72,-173.6 2697.87,-153.91 2787.13,-144 2848.99,-137.13 2913.69,-131.68 2978.34,-127.37"/>
<polygon fill="black" stroke="black" points="2978.3,-130.88 2988.05,-126.73 2977.84,-123.89 2978.3,-130.88"/>
<text text-anchor="middle" x="2823.63" y="-147.8" font-family="Times New Roman,serif" font-size="14.00">loaf of bread</text>
</g>
<!-- 7&#45;&gt;6 -->
<g id="edge14" class="edge">
<title>7&#45;&gt;6</title>
<path fill="none" stroke="black" d="M3248.73,-326.37C3131.01,-319.51 2998.45,-309.02 2878.13,-293 2757.23,-276.91 2619.31,-246.81 2533.21,-226.58"/>
<polygon fill="black" stroke="black" points="2534.2,-223.22 2523.67,-224.33 2532.59,-230.03 2534.2,-223.22"/>
<text text-anchor="middle" x="2823.63" y="-292.8" font-family="Times New Roman,serif" font-size="14.00">retry</text>
</g>
<!-- 8&#45;&gt;6 -->
<g id="edge15" class="edge">
<title>8&#45;&gt;6</title>
<path fill="none" stroke="black" d="M3367.87,-245.85C3223.36,-238.7 3030.56,-229.41 2860.13,-222 2817.71,-220.16 2772.82,-218.31 2728.9,-216.55"/>
<polygon fill="black" stroke="black" points="2729.1,-213.06 2718.97,-216.16 2728.82,-220.05 2729.1,-213.06"/>
<text text-anchor="middle" x="2823.63" y="-225.8" font-family="Times New Roman,serif" font-size="14.00">retry</text>
</g>
<!-- 9&#45;&gt;6 -->
<g id="edge16" class="edge">
<title>9&#45;&gt;6</title>
<path fill="none" stroke="black" d="M3411.44,-172.89C3248.82,-163.73 3001.62,-154.67 2787.13,-167 2718.27,-170.96 2641.91,-179.42 2579.21,-187.45"/>
<polygon fill="black" stroke="black" points="2579.04,-183.94 2569.57,-188.69 2579.94,-190.88 2579.04,-183.94"/>
<text text-anchor="middle" x="2823.63" y="-170.8" font-family="Times New Roman,serif" font-size="14.00">retry</text>
</g>
<!-- 11 -->
<g id="node12" class="node">
<title>11</title>
<ellipse fill="none" stroke="black" cx="4757.87" cy="-166" rx="294.31" ry="26.74"/>
<text text-anchor="middle" x="4757.87" y="-169.8" font-family="Times New Roman,serif" font-size="14.00">fail</text>
<text text-anchor="middle" x="4757.87" y="-154.8" font-family="Times New Roman,serif" font-size="14.00"> it appears that you are made of plastic and the lasers cut right thru you.</text>
</g>
<!-- 10&#45;&gt;11 -->
<g id="edge18" class="edge">
<title>10&#45;&gt;11</title>
<path fill="none" stroke="black" d="M4030.19,-133.39C4125.79,-137.96 4226.41,-142.71 4320.24,-147 4371.63,-149.35 4426.43,-151.79 4479.22,-154.11"/>
<polygon fill="black" stroke="black" points="4478.8,-157.59 4488.94,-154.53 4479.11,-150.6 4478.8,-157.59"/>
<text text-anchor="middle" x="4373.74" y="-154.8" font-family="Times New Roman,serif" font-size="14.00">walk thru the lasers</text>
</g>
<!-- 12 -->
<g id="node13" class="node">
<title>12</title>
<ellipse fill="none" stroke="black" cx="4757.87" cy="-97" rx="312.74" ry="18"/>
<text text-anchor="middle" x="4757.87" y="-93.3" font-family="Times New Roman,serif" font-size="14.00">somehow the lasers did not cut you, but you made it thru and see yet another door.</text>
</g>
<!-- 10&#45;&gt;12 -->
<g id="edge17" class="edge">
<title>10&#45;&gt;12</title>
<path fill="none" stroke="black" d="M4173.15,-96.35C4222.9,-95.4 4272.45,-94.59 4320.24,-94 4367.79,-93.41 4379.69,-93.78 4427.24,-94 4430.53,-94.01 4433.83,-94.03 4437.15,-94.05"/>
<polygon fill="black" stroke="black" points="4436.97,-97.55 4446.99,-94.1 4437.01,-90.55 4436.97,-97.55"/>
<text text-anchor="middle" x="4373.74" y="-97.8" font-family="Times New Roman,serif" font-size="14.00">dodge the lasers</text>
</g>
<!-- 11&#45;&gt;10 -->
<g id="edge19" class="edge">
<title>11&#45;&gt;10</title>
<path fill="none" stroke="black" d="M4590.31,-143.66C4538.19,-137.52 4480.41,-131.57 4427.24,-128 4380.88,-124.89 4333.04,-122.31 4284.82,-120.17"/>
<polygon fill="black" stroke="black" points="4285.2,-116.69 4275.06,-119.75 4284.9,-123.68 4285.2,-116.69"/>
<text text-anchor="middle" x="4373.74" y="-131.8" font-family="Times New Roman,serif" font-size="14.00">retry</text>
</g>
<!-- 13 -->
<g id="node14" class="node">
<title>13</title>
<ellipse fill="none" stroke="black" cx="5654.69" cy="-197" rx="510.41" ry="18"/>
<text text-anchor="middle" x="5654.69" y="-193.3" font-family="Times New Roman,serif" font-size="14.00">you shoot the lock on the door. the door opens, and you walk thru it, finding a person wearing a bulletproof vest and looking right at you.</text>
</g>
<!-- 12&#45;&gt;13 -->
<g id="edge20" class="edge">
<title>12&#45;&gt;13</title>
<path fill="none" stroke="black" d="M5015.16,-107.48C5034.45,-113.25 5053.14,-120.63 5070.49,-130 5081.6,-136 5078.05,-144.89 5088.49,-152 5110.09,-166.72 5118.78,-165.27 5144.49,-170 5176.07,-175.81 5208.93,-180.52 5242.06,-184.32"/>
<polygon fill="black" stroke="black" points="5241.48,-187.77 5251.8,-185.4 5242.25,-180.82 5241.48,-187.77"/>
<text text-anchor="middle" x="5107.49" y="-169.8" font-family="Times New Roman,serif" font-size="14.00">gun</text>
</g>
<!-- 14 -->
<g id="node15" class="node">
<title>14</title>
<ellipse fill="none" stroke="black" cx="5654.69" cy="-134" rx="283.6" ry="26.74"/>
<text text-anchor="middle" x="5654.69" y="-137.8" font-family="Times New Roman,serif" font-size="14.00">fail</text>
<text text-anchor="middle" x="5654.69" y="-122.8" font-family="Times New Roman,serif" font-size="14.00"> its still just cheese. what do you think the cheese is supposed to do?</text>
</g>
<!-- 12&#45;&gt;14 -->
<g id="edge21" class="edge">
<title>12&#45;&gt;14</title>
<path fill="none" stroke="black" d="M4912.23,-113.08C4962.65,-118.41 5018.97,-124.41 5070.49,-130 5078.49,-130.87 5080.45,-131.54 5088.49,-132 5177.97,-137.12 5275.56,-138.83 5364.07,-138.93"/>
<polygon fill="black" stroke="black" points="5363.86,-142.43 5373.86,-138.93 5363.86,-135.43 5363.86,-142.43"/>
<text text-anchor="middle" x="5107.49" y="-136.8" font-family="Times New Roman,serif" font-size="14.00">cheese</text>
</g>
<!-- 15 -->
<g id="node16" class="node">
<title>15</title>
<ellipse fill="none" stroke="black" cx="5654.69" cy="-62" rx="465.05" ry="26.74"/>
<text text-anchor="middle" x="5654.69" y="-65.8" font-family="Times New Roman,serif" font-size="14.00">fail</text>
<text text-anchor="middle" x="5654.69" y="-50.8" font-family="Times New Roman,serif" font-size="14.00"> the bomb explodes the door, and leaves a hole in the wall too, but you fly backwards into the lasers and get diced.</text>
</g>
<!-- 12&#45;&gt;15 -->
<g id="edge22" class="edge">
<title>12&#45;&gt;15</title>
<path fill="none" stroke="black" d="M4981.79,-84.08C5017.47,-82.23 5053.99,-80.46 5088.49,-79 5131.66,-77.17 5176.7,-75.47 5221.69,-73.9"/>
<polygon fill="black" stroke="black" points="5221.73,-77.41 5231.61,-73.56 5221.49,-70.41 5221.73,-77.41"/>
<text text-anchor="middle" x="5107.49" y="-82.8" font-family="Times New Roman,serif" font-size="14.00">bomb</text>
</g>
<!-- 16 -->
<g id="node17" class="node">
<title>16</title>
<ellipse fill="none" stroke="black" cx="6952.29" cy="-266" rx="199.31" ry="26.74"/>
<text text-anchor="middle" x="6952.29" y="-269.8" font-family="Times New Roman,serif" font-size="14.00">fail</text>
<text text-anchor="middle" x="6952.29" y="-254.8" font-family="Times New Roman,serif" font-size="14.00"> he catches you and throws you in the trashcan.</text>
</g>
<!-- 13&#45;&gt;16 -->
<g id="edge23" class="edge">
<title>13&#45;&gt;16</title>
<path fill="none" stroke="black" d="M5797.52,-214.73C5903.5,-227.2 6052.03,-243.03 6182.9,-251 6371.62,-262.49 6586.85,-265.85 6741.41,-266.57"/>
<polygon fill="black" stroke="black" points="6741.37,-270.07 6751.39,-266.61 6741.4,-263.07 6741.37,-270.07"/>
<text text-anchor="middle" x="6248.9" y="-260.8" font-family="Times New Roman,serif" font-size="14.00">run away</text>
</g>
<!-- 17 -->
<g id="node18" class="node">
<title>17</title>
<ellipse fill="none" stroke="black" cx="6952.29" cy="-197" rx="619.29" ry="18"/>
<text text-anchor="middle" x="6952.29" y="-193.3" font-family="Times New Roman,serif" font-size="14.00">it works, and he is too confused to run for you. you are now in an empty office area, full of cubicles, however an elevator is on the opposite side of the room from you.</text>
</g>
<!-- 13&#45;&gt;17 -->
<g id="edge24" class="edge">
<title>13&#45;&gt;17</title>
<path fill="none" stroke="black" d="M6165.42,-197C6216.57,-197 6268.91,-197 6321.11,-197"/>
<polygon fill="black" stroke="black" points="6321.08,-200.5 6331.08,-197 6321.08,-193.5 6321.08,-200.5"/>
<text text-anchor="middle" x="6248.9" y="-200.8" font-family="Times New Roman,serif" font-size="14.00">run past him</text>
</g>
<!-- 18 -->
<g id="node19" class="node">
<title>18</title>
<ellipse fill="none" stroke="black" cx="6952.29" cy="-128" rx="352.69" ry="26.74"/>
<text text-anchor="middle" x="6952.29" y="-131.8" font-family="Times New Roman,serif" font-size="14.00">fail</text>
<text text-anchor="middle" x="6952.29" y="-116.8" font-family="Times New Roman,serif" font-size="14.00"> the cheese bounces off of him, as he walks over and throws you into a garbage chute.</text>
</g>
<!-- 13&#45;&gt;18 -->
<g id="edge25" class="edge">
<title>13&#45;&gt;18</title>
<path fill="none" stroke="black" d="M5943.5,-181.76C6015.78,-177.93 6093.18,-173.82 6164.9,-170 6325.24,-161.47 6503.96,-151.92 6650.46,-144.09"/>
<polygon fill="black" stroke="black" points="6650.54,-147.6 6660.33,-143.57 6650.16,-140.61 6650.54,-147.6"/>
<text text-anchor="middle" x="6248.9" y="-171.8" font-family="Times New Roman,serif" font-size="14.00">throw the cheese at him</text>
</g>
<!-- 14&#45;&gt;12 -->
<g id="edge26" class="edge">
<title>14&#45;&gt;12</title>
<path fill="none" stroke="black" d="M5393.8,-123.25C5278.23,-118.48 5142.28,-112.85 5025.89,-108.04"/>
<polygon fill="black" stroke="black" points="5026.34,-104.56 5016.2,-107.64 5026.05,-111.55 5026.34,-104.56"/>
<text text-anchor="middle" x="5107.49" y="-115.8" font-family="Times New Roman,serif" font-size="14.00">retry</text>
</g>
<!-- 15&#45;&gt;12 -->
<g id="edge27" class="edge">
<title>15&#45;&gt;12</title>
<path fill="none" stroke="black" d="M5214.24,-53.23C5171.72,-54.08 5129.26,-55.6 5088.49,-58 5021.47,-61.95 4947.19,-70.38 4886.13,-78.4"/>
<polygon fill="black" stroke="black" points="4885.84,-74.91 4876.39,-79.69 4886.76,-81.85 4885.84,-74.91"/>
<text text-anchor="middle" x="5107.49" y="-61.8" font-family="Times New Roman,serif" font-size="14.00">retry</text>
</g>
<!-- 16&#45;&gt;13 -->
<g id="edge28" class="edge">
<title>16&#45;&gt;13</title>
<path fill="none" stroke="black" d="M6766.45,-256.11C6639.44,-249.32 6466.95,-240.1 6314.9,-232 6197.08,-225.73 6067.42,-218.84 5954.49,-212.84"/>
<polygon fill="black" stroke="black" points="5954.95,-209.36 5944.78,-212.33 5954.58,-216.35 5954.95,-209.36"/>
<text text-anchor="middle" x="6248.9" y="-235.8" font-family="Times New Roman,serif" font-size="14.00">retry</text>
</g>
<!-- 19 -->
<g id="node20" class="node">
<title>19</title>
<ellipse fill="none" stroke="black" cx="7880.05" cy="-256" rx="175.23" ry="26.74"/>
<text text-anchor="middle" x="7880.05" y="-259.8" font-family="Times New Roman,serif" font-size="14.00">the elevator seems to have a keycard slot.</text>
<text text-anchor="middle" x="7880.05" y="-244.8" font-family="Times New Roman,serif" font-size="14.00"> pressing the buttons does nothing.</text>
</g>
<!-- 17&#45;&gt;19 -->
<g id="edge29" class="edge">
<title>17&#45;&gt;19</title>
<path fill="none" stroke="black" d="M7282.36,-212.66C7375.9,-217.62 7477.84,-223.53 7571.69,-230 7618.92,-233.26 7670.19,-237.37 7717.07,-241.35"/>
<polygon fill="black" stroke="black" points="7716.49,-244.81 7726.75,-242.18 7717.09,-237.84 7716.49,-244.81"/>
<text text-anchor="middle" x="7638.19" y="-241.8" font-family="Times New Roman,serif" font-size="14.00">go to the elevator</text>
</g>
<!-- 20 -->
<g id="node21" class="node">
<title>20</title>
<ellipse fill="none" stroke="black" cx="8647.76" cy="-255" rx="373.2" ry="37.45"/>
<text text-anchor="middle" x="8647.76" y="-266.3" font-family="Times New Roman,serif" font-size="14.00">inside one of the cubicles you found a keycard belonging to a man named Jeffery Hinkstein.</text>
<text text-anchor="middle" x="8647.76" y="-251.3" font-family="Times New Roman,serif" font-size="14.00"> there is a note on the back, written in pencil reading:</text>
<text text-anchor="middle" x="8647.76" y="-236.3" font-family="Times New Roman,serif" font-size="14.00">backup codes: 199234, 234292, 222856</text>
</g>
<!-- 17&#45;&gt;20 -->
<g id="edge30" class="edge">
<title>17&#45;&gt;20</title>
<path fill="none" stroke="black" d="M7557.34,-193C7719.19,-194.21 7894.01,-197.6 8055.41,-205 8158.6,-209.73 8271.67,-218.42 8371.05,-227.25"/>
<polygon fill="black" stroke="black" points="8370.7,-230.73 8380.97,-228.14 8371.32,-223.76 8370.7,-230.73"/>
<text text-anchor="middle" x="7880.05" y="-208.8" font-family="Times New Roman,serif" font-size="14.00">inspect the cubicles</text>
</g>
<!-- 18&#45;&gt;13 -->
<g id="edge31" class="edge">
<title>18&#45;&gt;13</title>
<path fill="none" stroke="black" d="M6847.5,-102.02C6692.49,-69.13 6395.94,-29.54 6182.9,-144 6170.52,-150.65 6177.17,-163.15 6164.9,-170 6039.1,-240.22 5867.46,-232.07 5759.1,-216.82"/>
<polygon fill="black" stroke="black" points="5759.74,-213.37 5749.34,-215.39 5758.73,-220.3 5759.74,-213.37"/>
<text text-anchor="middle" x="6248.9" y="-147.8" font-family="Times New Roman,serif" font-size="14.00">retry</text>
</g>
<!-- 19&#45;&gt;20 -->
<g id="edge32" class="edge">
<title>19&#45;&gt;20</title>
<path fill="none" stroke="black" d="M8055.76,-255.77C8117.9,-255.69 8190.54,-255.6 8263.22,-255.5"/>
<polygon fill="black" stroke="black" points="8262.9,-259 8272.9,-255.49 8262.89,-252 8262.9,-259"/>
<text text-anchor="middle" x="8164.91" y="-258.8" font-family="Times New Roman,serif" font-size="14.00">go back and inspect the cubicles</text>
</g>
<!-- 21 -->
<g id="node22" class="node">
<title>21</title>
<ellipse fill="none" stroke="black" cx="9576.99" cy="-255" rx="504.75" ry="26.74"/>
<text text-anchor="middle" x="9576.99" y="-258.8" font-family="Times New Roman,serif" font-size="14.00">back at the elevator, you put in the keycard, and the keycard spits back out. you hear a whirring noise and the panel lights up.</text>
<text text-anchor="middle" x="9576.99" y="-243.8" font-family="Times New Roman,serif" font-size="14.00">relieved, you call the elevator. it arrives and you get in. which button do you press?</text>
</g>
<!-- 20&#45;&gt;21 -->
<g id="edge33" class="edge">
<title>20&#45;&gt;21</title>
<path fill="none" stroke="black" d="M9021.23,-255C9034.31,-255 9047.49,-255 9060.73,-255"/>
<polygon fill="black" stroke="black" points="9060.34,-258.5 9070.34,-255 9060.34,-251.5 9060.34,-258.5"/>
<text text-anchor="middle" x="9046.62" y="-258.8" font-family="Times New Roman,serif" font-size="14.00">ok</text>
</g>
<!-- 22 -->
<g id="node23" class="node">
<title>22</title>
<ellipse fill="none" stroke="black" cx="10841.1" cy="-443" rx="548.93" ry="26.74"/>
<text text-anchor="middle" x="10841.1" y="-446.8" font-family="Times New Roman,serif" font-size="14.00">fail</text>
<text text-anchor="middle" x="10841.1" y="-431.8" font-family="Times New Roman,serif" font-size="14.00"> a person in a steel&#45;gray sweater pushes a button behind their desk, and you are suddenly locked in a cage and thrown into boiling water.</text>
</g>
<!-- 21&#45;&gt;22 -->
<g id="edge35" class="edge">
<title>21&#45;&gt;22</title>
<path fill="none" stroke="black" d="M9641.59,-282.01C9738.43,-321.62 9929.58,-393.9 10099.87,-423 10159.19,-433.14 10221.57,-440.23 10283.91,-445.07"/>
<polygon fill="black" stroke="black" points="10283.39,-448.54 10293.63,-445.8 10283.92,-441.56 10283.39,-448.54"/>
<text text-anchor="middle" x="10121.37" y="-432.8" font-family="Times New Roman,serif" font-size="14.00">LBBY</text>
</g>
<!-- 23 -->
<g id="node24" class="node">
<title>23</title>
<ellipse fill="none" stroke="black" cx="10841.1" cy="-367" rx="198.89" ry="26.74"/>
<text text-anchor="middle" x="10841.1" y="-370.8" font-family="Times New Roman,serif" font-size="14.00">fail</text>
<text text-anchor="middle" x="10841.1" y="-355.8" font-family="Times New Roman,serif" font-size="14.00"> nothing happens. you are already on that floor.</text>
</g>
<!-- 21&#45;&gt;23 -->
<g id="edge36" class="edge">
<title>21&#45;&gt;23</title>
<path fill="none" stroke="black" d="M9698.29,-281.41C9803.62,-303.29 9961.08,-332.97 10099.87,-347 10278.6,-365.07 10482.76,-369.37 10631.34,-369.55"/>
<polygon fill="black" stroke="black" points="10631.32,-373.05 10641.32,-369.56 10631.32,-366.05 10631.32,-373.05"/>
<text text-anchor="middle" x="10121.37" y="-353.8" font-family="Times New Roman,serif" font-size="14.00">OFFI</text>
</g>
<!-- 24 -->
<g id="node25" class="node">
<title>24</title>
<ellipse fill="none" stroke="black" cx="10841.1" cy="-293" rx="361.16" ry="26.74"/>
<text text-anchor="middle" x="10841.1" y="-296.8" font-family="Times New Roman,serif" font-size="14.00">being a fully automatic floor, you see a large number of machines doing unusual things.</text>
<text text-anchor="middle" x="10841.1" y="-281.8" font-family="Times New Roman,serif" font-size="14.00"> in the back there is a machine with an exposed mechanical belt. what do you throw in it?</text>
</g>
<!-- 21&#45;&gt;24 -->
<g id="edge37" class="edge">
<title>21&#45;&gt;24</title>
<path fill="none" stroke="black" d="M10018.09,-268.25C10173.89,-272.94 10346.83,-278.15 10493.73,-282.57"/>
<polygon fill="black" stroke="black" points="10493.55,-286.07 10503.65,-282.87 10493.76,-279.07 10493.55,-286.07"/>
<text text-anchor="middle" x="10121.37" y="-274.8" font-family="Times New Roman,serif" font-size="14.00">FCTR</text>
</g>
<!-- 25 -->
<g id="node26" class="node">
<title>25</title>
<ellipse fill="none" stroke="black" cx="10841.1" cy="-221" rx="680.47" ry="26.74"/>
<text text-anchor="middle" x="10841.1" y="-224.8" font-family="Times New Roman,serif" font-size="14.00">fail</text>
<text text-anchor="middle" x="10841.1" y="-209.8" font-family="Times New Roman,serif" font-size="14.00"> a couple of what seems to be robots with grey crt television heads, wearing steel&#45;gray sweaters, larger than you, grab you and throw you down a chute into boiling water.</text>
</g>
<!-- 21&#45;&gt;25 -->
<g id="edge38" class="edge">
<title>21&#45;&gt;25</title>
<path fill="none" stroke="black" d="M10028.74,-242.86C10105.3,-240.79 10185.72,-238.63 10264.95,-236.49"/>
<polygon fill="black" stroke="black" points="10264.71,-240 10274.61,-236.23 10264.52,-233 10264.71,-240"/>
<text text-anchor="middle" x="10121.37" y="-243.8" font-family="Times New Roman,serif" font-size="14.00">POWR</text>
</g>
<!-- 26 -->
<g id="node27" class="node">
<title>26</title>
<ellipse fill="none" stroke="black" cx="10841.1" cy="-149" rx="561.39" ry="26.74"/>
<text text-anchor="middle" x="10841.1" y="-152.8" font-family="Times New Roman,serif" font-size="14.00">fail</text>
<text text-anchor="middle" x="10841.1" y="-137.8" font-family="Times New Roman,serif" font-size="14.00"> a mixed bunch of people and robots who appear to have been having lunch, grab you and throw you down a large chute into boiling water.</text>
</g>
<!-- 21&#45;&gt;26 -->
<g id="edge39" class="edge">
<title>21&#45;&gt;26</title>
<path fill="none" stroke="black" d="M9762.41,-229.67C9876.91,-214.73 10027.21,-196.55 10160.87,-185 10240.58,-178.11 10325.69,-172.34 10407.75,-167.59"/>
<polygon fill="black" stroke="black" points="10407.75,-171.1 10417.53,-167.03 10407.34,-164.11 10407.75,-171.1"/>
<text text-anchor="middle" x="10121.37" y="-192.8" font-family="Times New Roman,serif" font-size="14.00">HSNG</text>
</g>
<!-- 27 -->
<g id="node28" class="node">
<title>27</title>
<ellipse fill="none" stroke="black" cx="10841.1" cy="-67" rx="652.82" ry="37.45"/>
<text text-anchor="middle" x="10841.1" y="-78.3" font-family="Times New Roman,serif" font-size="14.00">fail</text>
<text text-anchor="middle" x="10841.1" y="-63.3" font-family="Times New Roman,serif" font-size="14.00"> what appears to be a sentient crystal with floating hands, looks at you, while a large red warning appears in your vision saying &quot;WARNING: HIGH RADIATION&quot;</text>
<text text-anchor="middle" x="10841.1" y="-48.3" font-family="Times New Roman,serif" font-size="14.00"> your internals grind down, your vision accumulates salt and pepper noise, and you pass out from the radiation.</text>
</g>
<!-- 21&#45;&gt;27 -->
<g id="edge34" class="edge">
<title>21&#45;&gt;27</title>
<path fill="none" stroke="black" d="M9666.9,-228.29C9780.39,-195.37 9983.31,-140.43 10160.87,-113 10214.66,-104.69 10271.08,-97.88 10327.45,-92.3"/>
<polygon fill="black" stroke="black" points="10327.6,-95.8 10337.21,-91.35 10326.92,-88.83 10327.6,-95.8"/>
<text text-anchor="middle" x="10121.37" y="-123.8" font-family="Times New Roman,serif" font-size="14.00">STAF</text>
</g>
<!-- 22&#45;&gt;21 -->
<g id="edge40" class="edge">
<title>22&#45;&gt;21</title>
<path fill="none" stroke="black" d="M10383.04,-428.01C10308.53,-422.15 10232.36,-414.08 10160.87,-403 9986.2,-375.93 9787.65,-319.94 9673.19,-285.12"/>
<polygon fill="black" stroke="black" points="9674.41,-281.83 9663.83,-282.26 9672.37,-288.53 9674.41,-281.83"/>
<text text-anchor="middle" x="10121.37" y="-400.8" font-family="Times New Roman,serif" font-size="14.00">retry</text>
</g>
<!-- 23&#45;&gt;21 -->
<g id="edge41" class="edge">
<title>23&#45;&gt;21</title>
<path fill="none" stroke="black" d="M10648.8,-359.9C10512.56,-353.96 10325.24,-344.01 10160.87,-329 10027.9,-316.86 9878.53,-297.78 9764.29,-282.05"/>
<polygon fill="black" stroke="black" points="9764.88,-278.59 9754.49,-280.69 9763.92,-285.53 9764.88,-278.59"/>
<text text-anchor="middle" x="10121.37" y="-329.8" font-family="Times New Roman,serif" font-size="14.00">retry</text>
</g>
<!-- 28 -->
<g id="node29" class="node">
<title>28</title>
<ellipse fill="none" stroke="black" cx="12047.05" cy="-330" rx="251.96" ry="26.74"/>
<text text-anchor="middle" x="12047.05" y="-333.8" font-family="Times New Roman,serif" font-size="14.00">fail</text>
<text text-anchor="middle" x="12047.05" y="-318.8" font-family="Times New Roman,serif" font-size="14.00"> the bomb jams the machine but also explodes on the way in.</text>
</g>
<!-- 24&#45;&gt;28 -->
<g id="edge42" class="edge">
<title>24&#45;&gt;28</title>
<path fill="none" stroke="black" d="M11122.72,-310.05C11249.87,-317.01 11402.13,-324.29 11539.34,-328 11618.81,-330.15 11705.32,-331.03 11784,-331.27"/>
<polygon fill="black" stroke="black" points="11783.52,-334.77 11793.53,-331.3 11783.54,-327.77 11783.52,-334.77"/>
<text text-anchor="middle" x="11558.34" y="-331.8" font-family="Times New Roman,serif" font-size="14.00">bomb</text>
</g>
<!-- 29 -->
<g id="node30" class="node">
<title>29</title>
<ellipse fill="none" stroke="black" cx="12047.05" cy="-256" rx="371.46" ry="26.74"/>
<text text-anchor="middle" x="12047.05" y="-259.8" font-family="Times New Roman,serif" font-size="14.00">fail</text>
<text text-anchor="middle" x="12047.05" y="-244.8" font-family="Times New Roman,serif" font-size="14.00"> the gun misfires inside the machine and hits a gas tank. it explodes and you get incinerated.</text>
</g>
<!-- 24&#45;&gt;29 -->
<g id="edge43" class="edge">
<title>24&#45;&gt;29</title>
<path fill="none" stroke="black" d="M11175.87,-282.74C11336.67,-277.8 11529.56,-271.87 11692.83,-266.86"/>
<polygon fill="black" stroke="black" points="11692.64,-270.36 11702.52,-266.56 11692.42,-263.37 11692.64,-270.36"/>
<text text-anchor="middle" x="11558.34" y="-274.8" font-family="Times New Roman,serif" font-size="14.00">gun</text>
</g>
<!-- 30 -->
<g id="node31" class="node">
<title>30</title>
<ellipse fill="none" stroke="black" cx="12047.05" cy="-170" rx="451.92" ry="18"/>
<text text-anchor="middle" x="12047.05" y="-166.3" font-family="Times New Roman,serif" font-size="14.00">the cheese gums up the machine and it stops. you hear a faint beeping and the elevator starts going down to another floor.</text>
</g>
<!-- 24&#45;&gt;30 -->
<g id="edge44" class="edge">
<title>24&#45;&gt;30</title>
<path fill="none" stroke="black" d="M11177.77,-302.88C11318.04,-301.38 11462.08,-290.76 11521.34,-257 11533.87,-249.86 11527.27,-237.9 11539.34,-230 11560.49,-216.15 11570.32,-223.62 11595.34,-220 11681.01,-207.61 11776.24,-196.64 11857,-188.16"/>
<polygon fill="black" stroke="black" points="11857.21,-191.65 11866.79,-187.13 11856.48,-184.69 11857.21,-191.65"/>
<text text-anchor="middle" x="11558.34" y="-233.8" font-family="Times New Roman,serif" font-size="14.00">cheese</text>
</g>
<!-- 25&#45;&gt;21 -->
<g id="edge45" class="edge">
<title>25&#45;&gt;21</title>
<path fill="none" stroke="black" d="M10161.87,-219.25C10140.96,-219.76 10120.26,-220.34 10099.87,-221 10028.33,-223.33 9951.37,-227.45 9879.1,-232.03"/>
<polygon fill="black" stroke="black" points="9879.28,-228.51 9869.52,-232.64 9879.73,-235.5 9879.28,-228.51"/>
<text text-anchor="middle" x="10121.37" y="-224.8" font-family="Times New Roman,serif" font-size="14.00">retry</text>
</g>
<!-- 26&#45;&gt;21 -->
<g id="edge46" class="edge">
<title>26&#45;&gt;21</title>
<path fill="none" stroke="black" d="M10291.08,-154.54C10226.55,-157.72 10161.69,-162.08 10099.87,-168 9968.97,-180.53 9821.27,-206.25 9716.49,-226.49"/>
<polygon fill="black" stroke="black" points="9715.85,-223.05 9706.7,-228.4 9717.18,-229.93 9715.85,-223.05"/>
<text text-anchor="middle" x="10121.37" y="-171.8" font-family="Times New Roman,serif" font-size="14.00">retry</text>
</g>
<!-- 27&#45;&gt;21 -->
<g id="edge47" class="edge">
<title>27&#45;&gt;21</title>
<path fill="none" stroke="black" d="M10233.86,-80.97C10188.38,-85.75 10143.31,-91.68 10099.87,-99 9939.71,-125.97 9759.57,-186.96 9658.33,-224.19"/>
<polygon fill="black" stroke="black" points="9657.17,-220.89 9649,-227.64 9659.6,-227.45 9657.17,-220.89"/>
<text text-anchor="middle" x="10121.37" y="-102.8" font-family="Times New Roman,serif" font-size="14.00">retry</text>
</g>
<!-- 28&#45;&gt;24 -->
<g id="edge48" class="edge">
<title>28&#45;&gt;24</title>
<path fill="none" stroke="black" d="M11817.53,-318.71C11741.17,-315.21 11655.59,-311.6 11577.34,-309 11456.19,-304.97 11323.79,-301.73 11205.13,-299.24"/>
<polygon fill="black" stroke="black" points="11205.27,-295.75 11195.2,-299.04 11205.13,-302.74 11205.27,-295.75"/>
<text text-anchor="middle" x="11558.34" y="-312.8" font-family="Times New Roman,serif" font-size="14.00">retry</text>
</g>
<!-- 29&#45;&gt;24 -->
<g id="edge49" class="edge">
<title>29&#45;&gt;24</title>
<path fill="none" stroke="black" d="M11679.84,-251.72C11645.19,-251.43 11610.6,-251.18 11577.34,-251 11560.45,-250.91 11556.01,-248.29 11539.34,-251 11531.01,-252.35 11529.62,-255.43 11521.34,-257 11422.37,-275.76 11313.94,-286.02 11213.34,-291.35"/>
<polygon fill="black" stroke="black" points="11213.38,-287.85 11203.57,-291.85 11213.74,-294.84 11213.38,-287.85"/>
<text text-anchor="middle" x="11558.34" y="-254.8" font-family="Times New Roman,serif" font-size="14.00">retry</text>
</g>
<!-- 31 -->
<g id="node32" class="node">
<title>31</title>
<ellipse fill="none" stroke="black" cx="13420.84" cy="-207" rx="315.24" ry="26.74"/>
<text text-anchor="middle" x="13420.84" y="-210.8" font-family="Times New Roman,serif" font-size="14.00">fail</text>
<text text-anchor="middle" x="13420.84" y="-195.8" font-family="Times New Roman,serif" font-size="14.00"> you get turned into grated plastic. try not to hide in the wheat farm next time.</text>
</g>
<!-- 30&#45;&gt;31 -->
<g id="edge50" class="edge">
<title>30&#45;&gt;31</title>
<path fill="none" stroke="black" d="M12192.69,-187.49C12285.2,-197.79 12407.85,-209.78 12516.76,-215 12717.7,-224.62 12944.08,-222.59 13119.91,-218.17"/>
<polygon fill="black" stroke="black" points="13120,-221.67 13129.9,-217.91 13119.82,-214.67 13120,-221.67"/>
<text text-anchor="middle" x="12597.76" y="-223.8" font-family="Times New Roman,serif" font-size="14.00">hide inside a machine</text>
</g>
<!-- 32 -->
<g id="node33" class="node">
<title>32</title>
<ellipse fill="none" stroke="black" cx="13420.84" cy="-134" rx="273.8" ry="26.74"/>
<text text-anchor="middle" x="13420.84" y="-137.8" font-family="Times New Roman,serif" font-size="14.00">fail</text>
<text text-anchor="middle" x="13420.84" y="-122.8" font-family="Times New Roman,serif" font-size="14.00"> turns out this building is solid iron. you are not escaping that way.</text>
</g>
<!-- 30&#45;&gt;32 -->
<g id="edge52" class="edge">
<title>30&#45;&gt;32</title>
<path fill="none" stroke="black" d="M12427.89,-160.03C12655.15,-154.07 12938.8,-146.62 13144.5,-141.23"/>
<polygon fill="black" stroke="black" points="13144.36,-144.73 13154.26,-140.97 13144.18,-137.73 13144.36,-144.73"/>
<text text-anchor="middle" x="12597.76" y="-160.8" font-family="Times New Roman,serif" font-size="14.00">find a window</text>
</g>
<!-- 33 -->
<g id="node34" class="node">
<title>33</title>
<ellipse fill="none" stroke="black" cx="13420.84" cy="-61" rx="724.15" ry="26.74"/>
<text text-anchor="middle" x="13420.84" y="-64.8" font-family="Times New Roman,serif" font-size="14.00">falling down the elevator shaft, you land on top of the elevator and climb into the lobby. it looks like everyone left to go check. you walk outside, taking in the early morning sunlight.</text>
<text text-anchor="middle" x="13420.84" y="-49.8" font-family="Times New Roman,serif" font-size="14.00"> so far this is the end of the game. more will come later.</text>
</g>
<!-- 30&#45;&gt;33 -->
<g id="edge51" class="edge">
<title>30&#45;&gt;33</title>
<path fill="none" stroke="black" d="M12170.68,-152.23C12265.11,-139.05 12398.98,-121.45 12516.76,-110 12642.89,-97.73 12779.25,-88.33 12906.86,-81.21"/>
<polygon fill="black" stroke="black" points="12906.69,-84.72 12916.48,-80.67 12906.31,-77.73 12906.69,-84.72"/>
<text text-anchor="middle" x="12597.76" y="-113.8" font-family="Times New Roman,serif" font-size="14.00">jump down the elevator shaft</text>
</g>
<!-- 31&#45;&gt;30 -->
<g id="edge53" class="edge">
<title>31&#45;&gt;30</title>
<path fill="none" stroke="black" d="M13119.44,-198.9C12918.69,-193.48 12652.7,-186.31 12435.97,-180.46"/>
<polygon fill="black" stroke="black" points="12436.31,-176.97 12426.22,-180.2 12436.12,-183.97 12436.31,-176.97"/>
<text text-anchor="middle" x="12597.76" y="-189.8" font-family="Times New Roman,serif" font-size="14.00">retry</text>
</g>
<!-- 32&#45;&gt;30 -->
<g id="edge54" class="edge">
<title>32&#45;&gt;30</title>
<path fill="none" stroke="black" d="M13152.02,-128.63C12972.27,-126.34 12730.22,-125.81 12516.76,-134 12424.95,-137.52 12323.26,-144.91 12238.12,-152.08"/>
<polygon fill="black" stroke="black" points="12237.93,-148.58 12228.26,-152.91 12238.52,-155.55 12237.93,-148.58"/>
<text text-anchor="middle" x="12597.76" y="-137.8" font-family="Times New Roman,serif" font-size="14.00">retry</text>
</g>
<!-- 33&#45;&gt;0 -->
<g id="edge55" class="edge">
<title>33&#45;&gt;0</title>
<path fill="none" stroke="black" d="M13064.01,-37.3C12787.2,-20.9 12393.4,-2 12048.05,-2 350.17,-2 350.17,-2 350.17,-2 282.75,-2 206.27,-6.76 150.67,-11.09"/>
<polygon fill="black" stroke="black" points="150.68,-7.57 140.99,-11.85 151.24,-14.55 150.68,-7.57"/>
<text text-anchor="middle" x="5654.69" y="-5.8" font-family="Times New Roman,serif" font-size="14.00">replay</text>
</g>
</g>
</svg>
